<svg width="1325" height="1049" viewBox="0 0 1325 1049" fill="none" xmlns="http://www.w3.org/2000/svg">
<path d="M587.874 0.517985C511.019 8.63694 519.952 108.06 565.617 140.798C552.195 138.527 487.735 116.691 468.054 116.566C380.037 57.3923 497.279 35.9726 445.367 60.8005C432.196 86.4597 468.596 112.437 492.958 92.2649C540.062 -42.6676 308.5 22.755 438.942 149.763C280.093 178.095 305.217 45.7541 347.213 96.2412C306.52 88.5933 322.697 134.481 360.133 127.914C454.454 12.9735 194.139 40.7524 313.139 159.018C371.146 200.057 447.556 145.703 512.819 170.781C536.697 177.195 591.128 220.575 552.887 233.28C501.296 147.726 394.343 181.505 317.143 207.828C234.47 245.417 185.164 154.917 239.762 158.033C247.67 161.775 239.222 179.149 250.912 172.041C255.648 112.036 174.375 165.39 219.389 207.883C250.995 248.493 378.083 192.504 299.317 234.152C205.593 279.68 121.605 110.554 245.592 125.073C282.781 134.924 277.669 203.187 240.288 183.984C227.38 164.476 223.376 211.042 262.752 195.996C309.166 173.192 270.44 109.486 230.537 106.217C125.732 116.566 154.86 260.477 273.016 256.902C245.551 288.616 152.977 335.127 131.453 274.914C144.79 254.076 135.372 274.388 147.256 283.282C232.033 308.914 193.488 186.409 125.442 216.404C29.0439 283.185 150.911 403.778 236.188 350.824C240.33 347.125 259.194 337.136 260.841 342.331C251.561 366.619 249.664 349.024 232.587 360.814C186.41 370.637 19.9442 466.914 61.7304 352.695C81.8964 344.798 42.4371 367.533 64.1542 385.351C173.987 407.476 60.8994 261.822 14.0995 350.866C-7.46534 411.772 51.8552 466.347 111.383 455.11C98.1012 489.664 108.849 540.733 64.4174 554.324C-9.03043 576.784 20.0412 423.009 60.4147 508.895C45.3041 476.751 9.68124 527.101 49.9022 533.916C107.049 517.637 46.3706 424.92 8.57322 489.581C-10.0554 521.447 2.71457 555.655 36.8 573.501C-20.8169 587.202 6.26023 656.034 51.8137 662.988C-19.9583 722.869 99.7216 788.168 146.451 730.213C159.029 714.28 154.125 719.987 156.673 733.594C159.79 750.205 168.654 764.585 164.914 782.043C132.616 736.1 69.3341 782.265 89.7771 825.866C112.644 876.533 190.33 864.66 201.035 812.26C213.709 829.468 230.26 835.134 247.144 843.753C376.325 978.242 90.7882 964.734 208.917 858.232C261.492 848.117 272.711 915.853 221.798 916.575C204.956 912.626 203.57 885.164 222.227 889.141C241.922 925.774 239.125 850.889 205.108 884.818C181.091 981.513 333.237 897.967 231.589 846.966C107.851 834.166 193.447 1020.24 272.614 942.358C268.196 1069.44 453.179 1098.57 441.78 941.444C582.956 992.789 624.382 859.201 662.512 900.462C717.747 933.602 852.523 964.928 843.23 869.967C828.369 844.113 839.131 829.094 856.595 808.853C849.185 776.28 845.599 778.801 856.595 744.83C833.645 712.783 827.496 750.801 813.41 746.381C793.951 740.271 810.904 733.967 776.874 733.732C730.129 786.712 728.619 740.327 714.589 767.218C715.337 777.208 725.114 782.071 727.705 769.228C751.679 787.323 779.852 842.493 818.425 828.291C861.527 928.49 779.824 926.923 705.378 901.126C594.272 860.088 704.81 820.186 641.626 730.268C633.565 716.537 607.513 685.296 587.859 679.573C530.56 654.192 621.168 645.961 604.188 553.535C685.115 558.205 627.595 558.245 693.107 590.14C727.511 613.956 835.792 581.244 800.558 530.329C858.396 543.462 856 575.26 860.71 626.121C855.64 651.308 872.44 689.257 850.016 705.038C839.38 699.372 830.502 689.409 817.344 696.628C781.513 727.704 791.514 655.618 823.757 667.852C833.922 667.407 832.067 660.44 823.674 658.222C766.555 643.177 765.157 714.224 804.962 722.066C812.192 723.493 816.817 719.863 822.801 717.536C832.081 729.754 841.956 714.64 849.602 727.801C943.436 752.657 880.431 669.763 928.935 666.355C961.137 669.486 1009.18 694.8 979.849 735.366C978.52 738.192 968.09 742.806 967.799 737.458C997.147 623.072 839.615 763.23 971.47 779.341C1029.18 765.127 1029.57 696.157 995.278 659.759C1042.04 675.055 1097.39 737.222 1152.69 695.839C1189.03 675.775 1210.12 629.418 1196.49 595.695C1257.85 615.272 1305.29 529.4 1249.13 492.976C1412.44 453.114 1258.07 295.862 1143.67 396.352C1181.08 188.571 1361.6 283.379 1266.51 324.223C1252.68 313.805 1275.65 305.547 1262.61 300.642C1217.27 318.709 1276.57 351.297 1298.14 325.968C1326.31 200.431 1147.13 262.527 1143.78 352.086C1131.81 405.052 1095.09 454.708 1045.06 484.8C1143.35 396.185 1107.01 317.67 1185.89 254.88C1304.32 161.082 1368.5 389.313 1245.48 334.78C1225.94 313.956 1247.72 272.254 1272.28 296.804C1277.81 303.704 1268.38 310.895 1273.26 315.993C1283.35 318.737 1284.32 309.979 1286.71 304.244C1261.81 235.899 1193.63 317.601 1245.57 351.143C1354.05 388.522 1344.78 227.294 1250.76 223.733C1123.84 175.38 1081.05 568.886 1038.82 393.123C1012.06 368.24 993.671 289.281 1050.2 305.823C1002.66 318.944 1040.5 384.229 1085.38 345.74C1121.53 316.699 1076.37 247.189 1025.41 261.766C943.008 282.991 993.587 398.775 934.89 208.202C937.01 84.9356 1048.28 192.823 983.782 183.984C995.153 167.317 979.599 163.811 962.343 166.167C932.633 192.103 966.248 239.126 1005.03 226.809C1109.26 142.476 921.304 40.8633 887.204 197.59C859.726 165.889 798.979 127.443 833.799 82.7743C873.603 62.6431 822.066 96.6706 840.612 122.386C861.567 135.367 857.898 137.75 886.138 130.532C970.39 -0.83992 711.833 8.30431 807.082 177.944C788.827 172.929 722.622 126.084 714.077 114.322C687.567 88.7734 696.32 20.8568 743.176 50.6309C744.548 62.089 744.366 58.0156 736.195 54.0947C702.858 40.5584 703.869 81.6796 720.253 99.0676C767.413 131.848 805.253 57.0042 765.503 26.1078C683.952 -46.7966 625.574 82.0953 686.764 144.442C520.228 153.032 557.873 -26.5268 608.842 58.6251C587.458 7.97178 559.979 103.668 622.291 87.9559C682.04 63.7931 630.379 -6.71439 587.873 0.517861L587.874 0.517985ZM760.808 368.337C973.022 343.51 869.74 920.676 879.296 630.623C889.449 320.899 650.6 609.537 570.741 488.861C716.002 521.129 618.081 350.589 760.808 368.337ZM423.111 457.118C448.719 464.212 466.407 473.163 426.614 474.645C323.889 506.387 360.245 649.993 456.351 659.649C528.982 675.514 627.458 687.844 641.252 773.495C677.901 919.305 435.604 962.253 426.532 807.314C425.479 776.418 448.444 735.657 484.314 734.826C349.719 844.196 601.668 979.129 625.006 809.351C626.031 788.888 625.311 738.013 604.036 736.239C622.346 766.318 625.712 806.512 608.165 839.07C483.374 1004.34 373.25 686.958 541.225 755.331C591.82 805.777 485.534 857.981 506.281 790.952C518.372 791.298 534.107 794.042 532.929 778.039C530.38 771.61 490.326 758.269 481.573 795.705C479.716 904.715 645.116 835.745 577.997 744.648C508.29 647.887 411.643 706.521 362.351 606.655C325.176 547.633 349.802 462.356 423.097 457.118H423.111ZM251.548 597.926C374.87 612.807 373.887 835.094 238.044 782.874C139.486 699.843 317.586 642.746 263.058 743.985C308.334 752.45 276.783 655.798 225.302 685.696C152.477 751.079 253.917 824.052 321.658 829.925C446.116 874.747 461.393 1093.25 321.035 1023.53C366.394 997.875 341.589 1058.03 399.289 1010.94C436.587 951.697 383.998 869.024 326.63 846.164C369.995 881.465 448.927 967.353 371.2 1012.55C353.957 1015.58 375.881 985.115 377.322 982.095C417.487 857.427 228.626 852.814 187.781 768.065C138.891 690.643 260.08 611.933 303.486 690.99C342.101 804.073 192.268 761.192 257.337 722.939C253.473 701.74 228.418 723.534 226.48 736.447C238.764 788.833 309.041 783.359 327.336 735.255C359.816 645.047 202.712 564.079 164.874 673.047C170.289 626.619 202.615 594.656 251.533 597.926H251.548ZM425.243 217.25C522.693 216.682 520.617 305.061 502.389 275.925C421.242 193.129 305.646 289.101 232.601 333.576C34.681 397.889 128.004 124.214 187.283 263.539C176.481 289.06 134.375 277.504 155.164 255.434C164.083 264.024 165.786 256.515 164.54 249.351C145.302 232.364 122.686 262.513 122.519 273.681C180.469 401.505 330.854 197.895 425.243 217.25ZM568.593 320.551C690.781 314.774 680.074 521.489 568.593 466.665C550.961 462.038 550.395 426.902 560.671 420.279C550.824 488.252 640.934 467.759 637.485 407.685C621.613 313.957 491.323 348.081 501.282 432.028C497.376 504.835 617.735 571.145 522.389 634.78C504.038 643.979 483.857 644.604 516.6 631.704C618.164 546.955 335.66 389.189 568.607 320.551H568.593ZM573.899 356.298C618.911 361.936 652.18 438.789 596.072 452.436C552.972 454.93 571.627 394.453 595.435 421.208C545.007 439.288 652.637 438.097 584.41 398.417C437.03 424.629 660.989 557.954 572.818 634.877C554.689 671.939 473.858 655.3 523.858 645.13C659.161 566.419 392.308 405.052 573.884 356.298H573.899ZM406.407 413.74C416.85 416.247 427.585 413.56 436.476 420.862C448.333 430.574 423.568 424.421 421.199 430.892C488.844 463.077 381.948 427.165 353.43 487.696C275.62 662.378 476.283 666.064 564.065 737.291C590.408 764.518 582.915 838.406 573.911 777.998C544.439 690.019 414.454 727.914 364.885 653.83C303.334 586.69 295.162 431.875 406.407 413.725V413.74ZM219.222 534.638C232.961 534.638 274.748 549.821 281.936 569.427C280.522 569.344 247.683 556.832 245.731 555.724C106.01 518.594 103.336 874.442 145.122 648.303C147.519 582.423 240.053 531.479 290.288 591.664C116.093 523.484 198.114 792.241 58.1295 730.06C29.1132 713.337 40.7474 666.452 73.8495 673.144C95.2758 683.383 93.1706 715.194 69.8745 706.493C66.3704 704.636 68.0324 698.679 65.8717 695.631C68.7388 682.912 82.2705 703.57 86.2039 695.866C74.7636 666.869 54.9577 692.153 57.5754 702.586C86.3839 756.065 132.713 677.537 80.0405 660.329C163.696 648.704 129.181 536.175 219.207 534.623L219.222 534.638ZM1247.99 376.512C1383.65 402.156 1229.89 557.58 1222.98 433.774C1252.98 400.813 1274.52 467.842 1243.26 435.755C1222.92 433.607 1237.28 468.882 1254.88 469.589C1281.66 466.388 1300.8 438.637 1287.38 416.164C1171.46 289.835 1115.04 589.835 938.327 559.465C921.359 552.053 897.08 555.669 904.421 524.772C1057.08 611.476 1111.07 366.328 1248 376.512H1247.99ZM729.34 15.3842C783.91 22.1038 779.797 124.034 721.972 85.7393C708.412 72.6048 728.993 47.9155 731.209 76.207C780.253 86.1272 740.225 -1.58796 696.168 43.6897C643.732 168.065 970.819 239.293 851.817 364.333C859.089 355.868 870.93 319.415 859.324 316.09C850.876 330.804 853.257 360.883 833.591 366.231C884.878 280.275 804.422 210.017 728.453 166.68C679.064 131.238 641.626 18.2521 729.339 15.3981L729.34 15.3842ZM856.581 50.6449C933.478 71.8289 861.056 174.037 848.022 96.3937C852.052 87.4019 864.6 78.1746 865.791 93.2763C853.575 95.3684 854.394 103.362 861.208 109.971C903.133 112.244 864.434 46.253 831.513 72.8958C746.86 144.899 1024.99 305.034 872.427 389.743C855.529 388.205 881.693 369.93 884.655 362.102C955.916 253.452 690.67 109.764 856.581 50.6588V50.6449ZM1191.41 488.375C1332.8 495.69 1212.94 665.662 1189.85 538.24C1209.86 489.429 1263.52 560.989 1214.34 550.722C1212.6 542.27 1235.73 553.687 1219.41 534.65C1194.83 528.652 1195.61 562.804 1220.02 567.376C1275.44 565.243 1227.89 497.645 1189.86 499.279C1094.22 490.121 1075.54 626.607 962.343 587.189C924.891 575.19 1047.37 576.451 1080.22 534.443C1110.87 506.359 1144.79 482.515 1191.42 488.362L1191.41 488.375ZM1133.97 550.945C1238.11 567.307 1176.76 725.973 1085.41 691.488C1040.39 674.018 1032.93 651.753 980.818 634.807C923.714 631.262 1015.01 629.488 1031.15 640.752C1227.73 778.136 1166.87 465.363 1115.12 594.366C1111.61 603.135 1123.63 592.51 1132.41 606.627C1114.6 660.107 1057.04 570.937 1133.97 550.957V550.945ZM224.331 442.446C281.215 475.726 198.294 453.947 191.368 472.096C205.925 472.968 226.603 469.852 226.465 497.88C121.369 472.29 132.02 596.138 89.431 642.568C59.7777 654.731 5.16614 640.516 17.4513 600.406C23.13 580.678 66.0518 584.874 52.16 602.54C10.8171 569.746 14.3904 644.548 57.3678 640.669C124.514 642.012 95.9128 455.872 224.331 442.433V442.446ZM450.756 499.279C507.418 509.767 560.948 592.537 493.082 627.853C447.099 630.596 431.435 585.471 463.484 587.466C445.009 615.701 496.919 629.154 507.084 602.194C541.184 516.792 393.526 515.06 406.422 602.194C362.848 568.775 388.07 490.343 450.756 499.251V499.279ZM295.966 866.046C463.65 921.119 286.368 1101.22 285.121 946.1C300.273 917.558 347.059 927.574 341.298 962.753C324.372 986.694 294.303 961.076 327.129 954.204C321.229 919.748 276.95 978.409 320.078 986.403C397.834 979.088 335.3 880.136 279.678 932.411C291.589 914.634 284.788 875.079 295.979 866.06L295.966 866.046ZM415.826 364.818C420.244 367.076 456.309 365.843 445.59 381.873C436.102 392.195 403.776 368.019 393.166 388.371C445.16 388.607 452.057 412.88 406.878 403.39C302.046 412.451 298.971 542.354 330.397 614.4C261.451 536.064 296.644 378.049 415.812 364.818H415.826ZM412.169 287.217C428.263 289.627 488.997 294.019 475.949 319.235C468.4 321.05 468.345 309.413 462.086 309.051C457.765 313.916 468.36 321.744 465.242 326.565C376.671 276.424 296.533 357.807 284.387 440.673C273.251 630.887 217.615 295.364 412.169 287.231V287.217ZM962.343 125.974C1074.85 126.57 1002.84 283.407 962.48 188.889C974.308 155.18 973.117 184.858 980.375 200.623C1079.08 186.852 939.211 72.4248 920.819 182.294C923.507 263.982 989.336 396.186 897.288 405.121C1003.21 334.822 825.378 161.304 962.343 125.988V125.974ZM415.826 721.831C450.784 735.242 437.1 724.81 421.836 747.461C335.3 873.969 503.858 926.951 548.843 922.462C436.934 973.546 307.24 801.426 415.826 721.845V721.831ZM1041.53 274.942C1096.18 284.376 1087.25 348.025 1044.94 339.865C1041.21 334.337 1035.09 317.974 1049 319.831C1060.47 362.865 1088.52 299.174 1055.28 288.77C991.248 269.247 981.761 349.315 1005.57 390.172C1042.51 483.166 941.332 525.728 889.781 455.124C876.139 411.01 901.664 447.116 917.093 465.793C1066.79 519.299 914.018 284.889 1041.52 274.942H1041.53ZM714.589 196.62C801.208 193.087 883.437 305.257 810.044 356.367C801.997 352.64 815.253 342.027 817.344 336.664C819.062 322.768 813.216 261.876 796.153 260.976C808.826 281.314 808.314 319.429 797.178 341.279C795.281 339.409 808.895 298.092 794.783 295.571C783.549 380.793 807.163 241.136 714.576 196.62H714.589ZM1232.59 399.954C1313.97 388.136 1269.5 501.247 1242.84 445.772C1283.91 471.5 1267.5 403.875 1232.57 413.753C1199.71 425.903 1224.19 480.105 1208.27 473.953C1180.18 467.094 1133.45 484.123 1128.88 482.93C1146.84 460.708 1192.6 392.237 1232.57 399.954H1232.59ZM65.0685 333.603C81.7441 334.545 87.5889 340.725 91.2316 352.266C12.6591 298.024 19.8059 495.898 178.723 386.75C188.461 381.361 265.509 349.176 247.463 380.474C192.076 383.147 156.41 432.985 96.633 437.5C37.077 447.698 -12.1466 338.286 65.0824 333.603H65.0685ZM576.806 285.083C615.781 287.494 686.155 318.197 670.545 361.881C659.34 352.154 661.598 329.016 644.659 323.53C623.648 318.917 665.185 346.779 657.415 354.953C624.937 300.24 542.25 299.589 497.265 342.567C468.914 377.19 465.104 423.701 473.552 465.348C434.911 396.324 497.611 292.177 576.806 285.069V285.083ZM611.529 227.446C718.509 219.868 730.669 394.245 701.943 328.103C658.137 234.014 505.824 264.052 611.529 227.446ZM590.283 11.1862C647.167 8.87247 660.006 95.9642 597.901 76.207C586.295 54.2056 599.216 48.0263 609.009 71.0392C639.992 61.5071 618.441 28.6435 601.585 23.6834C531.683 10.9922 548.926 103.515 587.887 127.899C615.019 158.048 672.028 145.233 698.648 168.563C606.626 194.929 465.784 61.0222 590.297 11.1862H590.283ZM765.516 527.738C852.44 546.69 723.149 603.634 692.041 571.117C628.149 549.546 743.328 530.314 765.516 527.738ZM477.363 37.4689C502.501 56.2976 485.908 113.282 453.056 79.0612C454.44 50.7696 469.328 67.0352 468.345 70.291C466.504 76.3872 451.988 81.2919 471.323 83.7857C497.057 54.8153 457.308 25.8031 429.994 50.6588C393.817 153.17 559.854 122.857 593.137 188.209C609.425 204.822 590.934 219.938 581.475 196.633C558.816 155.083 499.19 151.702 458.138 148.515C410.965 119.836 397.612 9.38511 477.349 37.4829L477.363 37.4689ZM1133.97 576.521C1182.16 584.14 1145.68 648.94 1125.09 660.564C1108.21 670.082 1030.97 648.455 1066.15 631.939C1070.36 627.798 1081.16 609.703 1085.58 608.47C1097.86 644.437 1160.57 643.579 1141 599.631C1131.29 577.837 1125.88 577.158 1133.97 576.534V576.521ZM1004.13 360.856C1098.66 460.985 966.496 590.555 897.759 479.19C998.713 550.28 1041.26 437.598 1004.13 360.856ZM967.938 353.346C969.836 381.97 985.596 410.083 981.83 439.413C967.965 476.35 911.566 462.938 908.202 427.4C935.764 424.851 958.562 373.242 967.951 353.346H967.938ZM382.252 708.308C438.97 713.85 342.489 762.674 366.02 826.435C366.783 830.105 375.384 846.524 364.871 838.115C301.119 817.221 350.689 737.056 382.252 708.308ZM236.202 423.867C287.849 445.897 151.535 405.994 116.134 530.369C104.514 486.27 207.213 356.824 246.244 412.022C233.598 409.222 210.468 424.269 236.202 423.881V423.867ZM426.614 265.215C447.792 270.355 485.451 275.468 488.914 301.446C418.208 257.429 322.032 290.556 284.373 360.856C247.56 510.238 240.551 266.712 426.614 265.201V265.215ZM399.704 320.551C418.249 319.928 473.069 323.17 453.07 352.266C396.712 317.241 324.913 371.912 298.708 417.494C303.916 376.941 353.486 322.671 399.704 320.565V320.551ZM468.054 546.151C516.489 545.43 511.835 628.089 467.21 601.487C521.489 605.948 463.65 539.014 442.806 584.874C436.061 602.498 436.767 622.158 457.626 631.927C461.878 633.976 485.396 636.402 469.482 641.223C411.698 643.771 404.898 544.446 468.054 546.151ZM449.164 193.918C477.363 196.093 541.585 225.618 525.395 257.858C476.766 186.409 371.492 205.321 306.852 246.344C336.52 212.096 401.338 195.637 449.164 193.918ZM129.071 769.436C151.826 771.181 167.006 814.922 138.392 794.542C135.178 797.824 132.02 801.122 129.071 804.572C146.674 826.892 141.272 810.294 151.355 813.272C153.157 817.679 140.898 821.045 136.938 820.241C117.56 816.694 111.411 785.203 134.333 786.795C144.305 802.174 154.029 787.891 140.76 778.899C64.9438 774.271 151.079 892.231 179.056 786.172C201.035 815.185 162.117 855.391 129.084 845.083C101.37 834.997 80.456 777.915 129.084 769.436H129.071ZM653.011 207.828C718.357 224.441 759.062 296.361 724.45 352.086C762.345 242.631 572.653 213.329 653.011 207.828ZM688.01 199.446C817.344 225.521 771.459 405.288 763.355 303.025C765.503 319.014 758.356 328.241 761.417 308.04C753.245 214.728 646.058 200.791 688.024 199.446H688.01ZM581.487 257.858C624.051 263.498 653.246 280.552 678.634 313.777C683.037 321.965 689.743 355.605 679.104 333.174C639.411 251.29 461.421 297.773 581.503 257.858H581.487ZM1073.54 583.448C1056.25 654.926 954.628 592.148 912.634 638.73C899.864 618.168 947.274 598.383 965.596 606.627C1037.08 621.369 1051.97 583.558 1073.54 583.448ZM943.908 651.447C1107.3 705.856 906.179 841.411 940.57 710.774C943.922 710.371 951.553 706.119 953.784 709.319C896.955 773.398 1050.83 761.386 981.096 675.138C972.826 654.773 887.01 657.474 943.908 651.447ZM1174.8 510.169C1219.94 517.388 1190.55 502.798 1174.8 550.945C1167.03 544.848 1155.43 538.157 1143.91 540.318C1081.4 556.971 1149.03 508.687 1174.8 510.169ZM830.364 783.539C877.981 810.114 787.317 826.518 772.567 794.597C781.043 767.468 818.051 805.93 830.364 783.539ZM103.808 564.453C95.0542 579.554 81.204 623.932 60.858 625.775C52.2292 626.55 27.0356 619.29 36.2739 609.689C58.8496 617.905 73.9326 608.872 69.2789 589.434C64.5975 569.871 49.7778 573.002 73.5309 573.749C81.1901 573.984 98.7522 564.314 103.808 564.453ZM785.53 740.631C805.945 754.929 819.09 760.332 837.523 747.046C843.798 762.259 816.361 775.297 804.602 762.009C787.454 750.981 780.044 772.261 756.167 776.945C740.738 775.891 778.632 742.142 785.53 740.631ZM341.298 63.0866C374.013 66.3147 377.128 130.671 337.655 113.989C325.633 98.846 339.747 97.7376 346.865 110.083C371.492 100.8 355.853 76.5534 337.655 73.4639C296.907 91.2398 314.124 67.9219 341.298 63.1004V63.0866ZM226.465 497.88C305.674 523.263 212.131 509.103 187.269 520.242C172.726 507.439 213.723 501.067 226.465 497.88ZM912.634 581.356C947.772 596.666 933.256 594.075 909.67 611.407C908.214 605.339 902.329 583.365 912.634 581.356ZM360.12 688.938C385.604 698.707 361.325 712.104 354.317 726.43C350.577 723.327 355.618 717.3 356.575 713.753C358.596 708.28 355.798 690.643 360.105 688.938H360.12ZM78.697 354.053C112.686 361.368 103.794 380.876 77.1042 376.512C65.1516 374.557 68.8634 356.047 78.697 354.053Z" fill="#686868" fill-opacity="0.2"/>
</svg>
