<svg width="69" height="69" viewBox="0 0 69 69" fill="none" xmlns="http://www.w3.org/2000/svg">
<g clip-path="url(#clip0_10765_2307)">
<path d="M68.5 11.9234C68.5 18.1826 63.4259 23.2568 57.1667 23.2568C50.9074 23.2568 45.8333 18.1826 45.8333 11.9234C45.8333 5.66419 50.9074 0.590088 57.1667 0.590088C63.4259 0.590088 68.5 5.66419 68.5 11.9234Z" fill="black"/>
<path d="M68.5 34.5901C68.5 40.8493 63.4259 45.9234 57.1667 45.9234C50.9074 45.9234 45.8333 40.8493 45.8333 34.5901C45.8333 28.3309 50.9074 23.2568 57.1667 23.2568C63.4259 23.2568 68.5 28.3309 68.5 34.5901Z" fill="black"/>
<path d="M68.5 57.2568C68.5 63.516 63.4259 68.5901 57.1667 68.5901C50.9074 68.5901 45.8333 63.516 45.8333 57.2568C45.8333 50.9975 50.9074 45.9234 57.1667 45.9234C63.4259 45.9234 68.5 50.9975 68.5 57.2568Z" fill="black"/>
<path d="M45.8333 11.9234C45.8333 18.1826 40.7592 23.2568 34.5 23.2568C28.2408 23.2568 23.1667 18.1826 23.1667 11.9234C23.1667 5.66419 28.2408 0.590088 34.5 0.590088C40.7592 0.590088 45.8333 5.66419 45.8333 11.9234Z" fill="black"/>
<path d="M45.8333 34.5901C45.8333 40.8493 40.7592 45.9234 34.5 45.9234C28.2408 45.9234 23.1667 40.8493 23.1667 34.5901C23.1667 28.3309 28.2408 23.2568 34.5 23.2568C40.7592 23.2568 45.8333 28.3309 45.8333 34.5901Z" fill="black"/>
<path d="M45.8333 57.2568C45.8333 63.516 40.7592 68.5901 34.5 68.5901C28.2408 68.5901 23.1667 63.516 23.1667 57.2568C23.1667 50.9975 28.2408 45.9234 34.5 45.9234C40.7592 45.9234 45.8333 50.9975 45.8333 57.2568Z" fill="black"/>
<path d="M23.1667 11.9234C23.1667 18.1826 18.0926 23.2568 11.8333 23.2568C5.57411 23.2568 0.5 18.1826 0.5 11.9234C0.5 5.66419 5.57411 0.590088 11.8333 0.590088C18.0926 0.590088 23.1667 5.66419 23.1667 11.9234Z" fill="black"/>
<path d="M23.1667 34.5901C23.1667 40.8493 18.0926 45.9234 11.8333 45.9234C5.57411 45.9234 0.5 40.8493 0.5 34.5901C0.5 28.3309 5.57411 23.2568 11.8333 23.2568C18.0926 23.2568 23.1667 28.3309 23.1667 34.5901Z" fill="black"/>
<path d="M23.1667 57.2568C23.1667 63.516 18.0926 68.5901 11.8333 68.5901C5.57411 68.5901 0.5 63.516 0.5 57.2568C0.5 50.9975 5.57411 45.9234 11.8333 45.9234C18.0926 45.9234 23.1667 50.9975 23.1667 57.2568Z" fill="black"/>
</g>
<defs>
<clipPath id="clip0_10765_2307">
<rect width="68" height="68" fill="white" transform="translate(0.5 0.590088)"/>
</clipPath>
</defs>
</svg>
