<svg width="69" height="69" viewBox="0 0 69 69" fill="none" xmlns="http://www.w3.org/2000/svg">
<g clip-path="url(#clip0_10765_1809)">
<path d="M22.6 1.61009C22.6 1.04676 22.1431 0.58763 21.5803 0.61362C19.0264 0.731578 16.5095 1.29197 14.1427 2.27235C11.4614 3.38298 9.02512 5.01085 6.97294 7.06302C4.92077 9.1152 3.29289 11.5515 2.18226 14.2328C1.07163 16.9141 0.5 19.7879 0.5 22.6901C0.5 25.5923 1.07163 28.4661 2.18226 31.1474C3.29289 33.8287 4.92076 36.265 6.97294 38.3171C9.02511 40.3693 11.4614 41.9972 14.1427 43.1078C16.5095 44.0882 19.0264 44.6486 21.5803 44.7665C22.1431 44.7925 22.6 44.3334 22.6 43.7701L22.6 1.61009Z" fill="black"/>
<path d="M67.48 22.6901C68.0433 22.6901 68.5024 22.2332 68.4764 21.6704C68.3585 19.1165 67.7981 16.5996 66.8177 14.2328C65.7071 11.5515 64.0792 9.1152 62.027 7.06303C59.9749 5.01085 57.5386 3.38298 54.8573 2.27235C52.176 1.16172 49.3022 0.590088 46.4 0.590088C43.4978 0.590087 40.624 1.16172 37.9427 2.27235C35.2614 3.38298 32.8251 5.01085 30.7729 7.06302C28.7208 9.1152 27.0929 11.5515 25.9822 14.2328C25.0019 16.5996 24.4415 19.1165 24.3235 21.6704C24.2975 22.2332 24.7567 22.6901 25.32 22.6901L67.48 22.6901Z" fill="black"/>
<path d="M46.4 67.5701C46.4 68.1334 46.8569 68.5925 47.4196 68.5665C49.9736 68.4486 52.4904 67.8882 54.8573 66.9078C57.5386 65.7972 59.9749 64.1693 62.027 62.1171C64.0792 60.065 65.7071 57.6287 66.8177 54.9474C67.9283 52.2661 68.5 49.3923 68.5 46.4901C68.5 43.5879 67.9283 40.7141 66.8177 38.0328C65.7071 35.3515 64.0792 32.9152 62.027 30.863C59.9749 28.8108 57.5386 27.183 54.8573 26.0723C52.4904 25.092 49.9736 24.5316 47.4196 24.4136C46.8569 24.3876 46.4 24.8467 46.4 25.4101L46.4 67.5701Z" fill="black"/>
<path d="M1.52 46.4901C0.956673 46.4901 0.497547 46.947 0.523538 47.5097C0.641496 50.0637 1.20189 52.5805 2.18226 54.9474C3.29289 57.6287 4.92076 60.0649 6.97294 62.1171C9.02511 64.1693 11.4614 65.7972 14.1427 66.9078C16.824 68.0184 19.6978 68.5901 22.6 68.5901C25.5022 68.5901 28.376 68.0184 31.0573 66.9078C33.7386 65.7972 36.1749 64.1693 38.2271 62.1171C40.2792 60.0649 41.9071 57.6287 43.0177 54.9474C43.9981 52.5805 44.5585 50.0637 44.6765 47.5097C44.7024 46.947 44.2433 46.4901 43.68 46.4901L1.52 46.4901Z" fill="black"/>
</g>
<defs>
<clipPath id="clip0_10765_1809">
<rect width="68" height="68" fill="white" transform="translate(0.5 0.590088)"/>
</clipPath>
</defs>
</svg>
