<svg width="68" height="68" viewBox="0 0 68 68" fill="none" xmlns="http://www.w3.org/2000/svg">
<g clip-path="url(#clip0_10765_1736)">
<path fill-rule="evenodd" clip-rule="evenodd" d="M-6.71784e-05 34C-6.63576e-05 15.2223 15.2223 -9.93638e-06 33.9999 -9.11558e-06C52.7776 -8.29478e-06 67.9999 15.2223 67.9999 34C67.9999 52.7777 52.7776 68 33.9999 68C15.2223 68 -6.79992e-05 52.7777 -6.71784e-05 34ZM28.9689 28.9688C26.1742 31.7635 21.9305 32.3576 13.4431 33.5458L10.1999 33.9999L13.4431 34.4539C21.9305 35.6422 26.1742 36.2363 28.9689 39.031C31.7635 41.8256 32.3576 46.0693 33.5459 54.5567L33.9999 57.8L34.454 54.5567C35.6422 46.0693 36.2364 41.8256 39.031 39.031C41.8257 36.2363 46.0694 35.6422 54.5568 34.4539L57.7999 33.9999L54.5567 33.5458C46.0693 32.3576 41.8257 31.7635 39.031 28.9688C36.2363 26.1742 35.6422 21.9305 34.454 13.4431L33.9999 10.2L33.5459 13.4431C32.3577 21.9305 31.7636 26.1742 28.9689 28.9688Z" fill="black"/>
</g>
<defs>
<clipPath id="clip0_10765_1736">
<rect width="68" height="68" fill="white" transform="matrix(-1 0 0 1 68 0)"/>
</clipPath>
</defs>
</svg>
