<svg width="68" height="68" viewBox="0 0 68 68" fill="none" xmlns="http://www.w3.org/2000/svg">
<g clip-path="url(#clip0_10765_1738)">
<path d="M48.75 34C40.6038 34 34 27.3962 34 19.25C34 27.3943 27.3993 33.9969 19.2557 34C27.3993 34.0031 34 40.6057 34 48.75C34 40.6038 40.6038 34 48.75 34C56.8962 34 63.5 40.6038 63.5 48.75L63.5 63.5L48.75 63.5C40.6038 63.5 34 56.8962 34 48.75C34 56.8962 27.3962 63.5 19.25 63.5L4.49996 63.5L4.49996 48.75C4.49996 40.6057 11.1006 34.0031 19.2442 34C11.1006 33.9969 4.49996 27.3943 4.49996 19.25L4.49996 4.49997L19.25 4.49997C27.3962 4.49997 34 11.1038 34 19.25C34 11.1038 40.6038 4.49997 48.75 4.49997L63.5 4.49996L63.5 19.25C63.5 27.3962 56.8962 34 48.75 34Z" fill="black"/>
</g>
<defs>
<clipPath id="clip0_10765_1738">
<rect width="59" height="59" fill="white" transform="matrix(-1 0 0 1 63.4999 4.5)"/>
</clipPath>
</defs>
</svg>
