<svg preserveAspectRatio="none" width="100%" height="100%" overflow="visible" style="display: block;" viewBox="0 0 19 33" fill="none" xmlns="http://www.w3.org/2000/svg">
<path id="Vector" d="M2.00002 6.41296C1.99829 5.82634 2.11388 5.2453 2.34 4.704C2.56612 4.16271 2.89819 3.6721 3.31669 3.26102C3.73519 2.84994 4.23167 2.5267 4.77692 2.3103C5.32218 2.09391 5.9052 1.98873 6.49169 2.00096C7.07819 2.01318 7.65632 2.14256 8.19208 2.38149C8.72785 2.62042 9.21042 2.96406 9.61143 3.39222C10.0124 3.82038 10.3238 4.32441 10.5271 4.87465C10.7305 5.4249 10.8218 6.01026 10.7956 6.5963C11.6577 6.81797 12.4581 7.2329 13.1361 7.80969C13.8141 8.38647 14.3519 9.10998 14.7089 9.92541C15.0659 10.7408 15.2326 11.6268 15.1965 12.5162C15.1604 13.4056 14.9224 14.2752 14.5004 15.059C15.2423 15.6617 15.8257 16.4365 16.1998 17.3161C16.5739 18.1956 16.7275 19.1533 16.6471 20.1057C16.5667 21.0582 16.2548 21.9766 15.7386 22.781C15.2223 23.5854 14.5173 24.2515 13.685 24.7214C13.7877 25.5166 13.7264 26.3246 13.5047 27.0952C13.283 27.8658 12.9057 28.5829 12.3961 29.202C11.8864 29.8211 11.2553 30.3291 10.5416 30.6947C9.82787 31.0604 9.0468 31.2758 8.24659 31.3277C7.44637 31.3797 6.64401 31.267 5.88905 30.9967C5.13409 30.7263 4.44256 30.3041 3.85717 29.7561C3.27178 29.208 2.80496 28.5458 2.48554 27.8103C2.16612 27.0747 2.00087 26.2815 2.00002 25.4796V6.41296Z" stroke="var(--stroke-0, #FF6A00)" stroke-width="2.93333" stroke-linecap="round" stroke-linejoin="round"/>
</svg>
