<svg preserveAspectRatio="none" width="100%" height="100%" overflow="visible" style="display: block;" viewBox="0 0 26 26" fill="none" xmlns="http://www.w3.org/2000/svg">
<path id="Vector" d="M13 2C6.95 2 2 6.95 2 13C2 19.05 6.95 24 13 24C14.0186 24 14.8128 23.1794 14.8128 22.1432C14.8128 21.6625 14.6148 21.2247 14.3321 20.9057C14.0131 20.5878 13.8503 20.1885 13.8503 19.6682C13.8461 19.4261 13.8907 19.1856 13.9815 18.9611C14.0722 18.7367 14.2072 18.5327 14.3784 18.3615C14.5496 18.1903 14.7536 18.0553 14.978 17.9646C15.2025 17.8738 15.443 17.8292 15.6851 17.8334H17.8807C21.2368 17.8334 23.9912 15.0801 23.9912 11.724C23.9615 6.4132 19.0071 2 13 2Z" stroke="var(--stroke-0, white)" stroke-width="2.2" stroke-linecap="round" stroke-linejoin="round"/>
</svg>
