<svg preserveAspectRatio="none" width="100%" height="100%" overflow="visible" style="display: block;" viewBox="0 0 9 9" fill="none" xmlns="http://www.w3.org/2000/svg">
<path id="Vector" d="M7.63062 3.84439C7.73346 4.53793 7.615 5.24624 7.29208 5.86857C6.96916 6.4909 6.45824 6.99557 5.83197 7.31079C5.2057 7.626 4.49599 7.73572 3.80377 7.62434C3.11155 7.51295 2.47208 7.18613 1.97631 6.69036C1.48055 6.19459 1.15373 5.55512 1.04234 4.8629C0.930951 4.17069 1.04067 3.46097 1.35589 2.8347C1.6711 2.20844 2.17577 1.69751 2.7981 1.37459C3.42043 1.05168 4.12874 0.933216 4.82228 1.03606C5.52972 1.14096 6.18466 1.47061 6.69036 1.97631C7.19606 2.48202 7.52571 3.13696 7.63062 3.84439Z" stroke="var(--stroke-0, white)" stroke-width="1.66667" stroke-linecap="round" stroke-linejoin="round"/>
</svg>
