<svg preserveAspectRatio="none" width="100%" height="100%" overflow="visible" style="display: block;" viewBox="0 0 30 30" fill="none" xmlns="http://www.w3.org/2000/svg">
<path id="Vector" d="M15.3333 2C8 2 2 8 2 15.3333C2 22.6667 8 28.6667 15.3333 28.6667C16.568 28.6667 17.5307 27.672 17.5307 26.416C17.5307 25.8333 17.2907 25.3027 16.948 24.916C16.5613 24.5307 16.364 24.0467 16.364 23.416C16.3589 23.1225 16.413 22.8311 16.523 22.559C16.633 22.2869 16.7966 22.0397 17.0041 21.8321C17.2117 21.6246 17.4589 21.461 17.731 21.351C18.0031 21.241 18.2945 21.1869 18.588 21.192H21.2493C25.3173 21.192 28.656 17.8547 28.656 13.7867C28.62 7.34933 22.6147 2 15.3333 2Z" stroke="var(--stroke-0, #FF6A00)" stroke-width="2.66667" stroke-linecap="round" stroke-linejoin="round"/>
</svg>
