<svg preserveAspectRatio="none" width="100%" height="100%" overflow="visible" style="display: block;" viewBox="0 0 17 30" fill="none" xmlns="http://www.w3.org/2000/svg">
<path id="Vector" d="M15.3344 6.01179C15.336 5.47849 15.2309 4.95027 15.0253 4.45819C14.8198 3.9661 14.5179 3.52009 14.1374 3.14638C13.757 2.77267 13.3056 2.47882 12.81 2.28209C12.3143 2.08537 11.7842 1.98976 11.2511 2.00087C10.7179 2.01198 10.1923 2.1296 9.70526 2.34681C9.2182 2.56401 8.7795 2.87642 8.41494 3.26566C8.05039 3.65489 7.76735 4.1131 7.58248 4.61332C7.3976 5.11355 7.31462 5.64569 7.33841 6.17845C6.55468 6.37997 5.82708 6.75719 5.21072 7.28154C4.59436 7.80588 4.10539 8.46362 3.78087 9.20492C3.45634 9.94622 3.30476 10.7516 3.33759 11.5602C3.37043 12.3688 3.58683 13.1592 3.97041 13.8718C3.29598 14.4197 2.76564 15.1241 2.42553 15.9237C2.08541 16.7233 1.94582 17.5939 2.01889 18.4598C2.09197 19.3256 2.3755 20.1605 2.84482 20.8918C3.31413 21.6231 3.95503 22.2287 4.71174 22.6558C4.6183 23.3788 4.67406 24.1132 4.87559 24.8138C5.07712 25.5144 5.42014 26.1662 5.88346 26.7291C6.34677 27.2919 6.92056 27.7538 7.56937 28.0861C8.21818 28.4185 8.92824 28.6144 9.65571 28.6616C10.3832 28.7088 11.1126 28.6063 11.7989 28.3606C12.4853 28.1149 13.1139 27.731 13.6461 27.2328C14.1783 26.7346 14.6026 26.1325 14.893 25.4639C15.1834 24.7952 15.3336 24.0741 15.3344 23.3451V6.01179Z" stroke="var(--stroke-0, white)" stroke-width="2.66667" stroke-linecap="round" stroke-linejoin="round"/>
</svg>
