<svg preserveAspectRatio="none" width="100%" height="100%" overflow="visible" style="display: block;" viewBox="0 0 22 22" fill="none" xmlns="http://www.w3.org/2000/svg">
<path id="Vector" d="M11 1C5.5 1 1 5.5 1 11C1 16.5 5.5 21 11 21C11.926 21 12.648 20.254 12.648 19.312C12.648 18.875 12.468 18.477 12.211 18.187C11.921 17.898 11.773 17.535 11.773 17.062C11.7692 16.8419 11.8098 16.6233 11.8922 16.4192C11.9747 16.2151 12.0975 16.0298 12.2531 15.8741C12.4088 15.7185 12.5941 15.5957 12.7982 15.5132C13.0023 15.4308 13.2209 15.3902 13.441 15.394H15.437C18.488 15.394 20.992 12.891 20.992 9.84C20.965 5.012 16.461 1 11 1Z" stroke="var(--stroke-0, white)" stroke-width="2" stroke-linecap="round" stroke-linejoin="round"/>
</svg>
