<svg preserveAspectRatio="none" width="100%" height="100%" overflow="visible" style="display: block;" viewBox="0 0 117 22" fill="none" xmlns="http://www.w3.org/2000/svg">
<path id="Vector" d="M11.2499 2.19569C9.82448 1.59015 8.40837 1.28737 7.0016 1.28737C4.15031 1.28737 2.72466 2.3435 2.72466 4.45575C2.72466 5.37121 3.0466 6.2247 3.69047 7.01619C4.33893 7.80769 5.12089 8.51098 6.03636 9.12606C6.9564 9.74114 7.87416 10.3705 8.78962 11.0142C9.71005 11.6579 10.492 12.4303 11.1355 13.3315C11.7794 14.2279 12.1013 15.2029 12.1013 16.2567C12.1013 18.0352 11.5053 19.3798 10.3133 20.2905C9.12129 21.1964 7.47631 21.6494 5.37837 21.6494C3.28042 21.6494 1.48763 21.1129 0 20.0401L0.70777 18.9816C2.11454 19.9019 3.6571 20.362 5.33545 20.362C7.01381 20.362 8.30118 20.0258 9.19758 19.3535C10.0985 18.6765 10.549 17.7038 10.549 16.4355C10.549 15.5582 10.2273 14.7238 9.58379 13.9323C8.93991 13.1408 8.15795 12.4279 7.23791 11.7938C6.32244 11.1596 5.40449 10.5112 4.48407 9.84842C3.5686 9.18089 2.78664 8.38939 2.13819 7.47393C1.49469 6.55369 1.17294 5.5667 1.17294 4.51296C1.17294 3.12546 1.68541 2.02642 2.71035 1.21585C3.73568 0.405285 5.12318 0 6.87286 0C8.62293 0 10.2488 0.352836 11.7506 1.05851L11.2499 2.19569ZM26.2802 21.5921C23.567 21.5921 21.2926 20.6457 19.4571 18.7528C17.6212 16.8551 16.7033 14.5354 16.7033 11.7938C16.7033 9.04738 17.6212 6.72773 19.4571 4.83481C21.2926 2.94189 23.567 1.99543 26.2802 1.99543C28.993 1.99543 31.2674 2.94189 33.1033 4.83481C34.9388 6.72773 35.8565 9.04738 35.8565 11.7938C35.8565 14.5354 34.9388 16.8551 33.1033 18.7528C31.2674 20.6457 28.993 21.5921 26.2802 21.5921ZM26.2945 3.19698C23.9436 3.19698 21.991 4.02662 20.4366 5.68591C18.8823 7.34519 18.1051 9.38115 18.1051 11.7938C18.1051 14.2064 18.8823 16.2376 20.4366 17.8874C21.991 19.5371 23.9436 20.362 26.2945 20.362C28.6499 20.362 30.5976 19.5371 32.1374 17.8874C33.6823 16.2376 34.4547 14.2064 34.4547 11.7938C34.4547 9.38115 33.6823 7.34519 32.1374 5.68591C30.5976 4.02662 28.6499 3.19698 26.2945 3.19698ZM41.7224 21.2989V2.28867H43.067V20.0687H51.8V21.2989H41.7224ZM56.7212 14.7047L53.9959 21.2989H52.6153L60.5833 2.16708H61.3769L69.4015 21.2989H67.907L65.1532 14.7047H56.7212ZM60.9048 4.33416C60.6142 5.21625 60.3519 5.95053 60.1181 6.537L57.1858 13.5675H64.6886L61.7848 6.56561C61.3366 5.46896 61.0433 4.72514 60.9048 4.33416ZM73.2728 21.2989V2.37449C74.9511 2.23622 76.3768 2.16708 77.5497 2.16708C79.3425 2.16708 80.8254 2.63197 81.9983 3.56174C83.1713 4.48674 83.7577 5.80987 83.7577 7.53114C83.7577 8.68501 83.424 9.75067 82.7564 10.7281C82.0939 11.7008 81.343 12.4899 80.5038 13.0955C82.8306 16.1804 84.2658 18.0256 84.8094 18.6312C85.9251 19.785 87.1362 20.4406 88.4426 20.598L88.414 21.5063C87.322 21.4872 86.4326 21.3275 85.746 21.0271C85.0644 20.722 84.385 20.207 83.708 19.4823C83.0355 18.7575 81.5574 16.8145 79.2737 13.6533C77.6907 13.6533 76.1386 13.6033 74.6174 13.5031V21.2989H73.2728ZM78.5442 12.5376C79.3071 12.5376 80.1272 12.0298 81.0045 11.0142C81.8818 9.99861 82.3205 8.81852 82.3205 7.47393C82.3205 6.12457 81.8602 5.09943 80.9398 4.39853C80.0244 3.69286 78.8348 3.34002 77.3712 3.34002C76.5893 3.34002 75.6713 3.38055 74.6174 3.46161V12.3946C76.0241 12.4899 77.3331 12.5376 78.5442 12.5376ZM91.0843 21.2989V2.28867H92.4289V21.2989H91.0843ZM99.4626 21.2989V2.28867H100.807V21.2989H99.4626ZM111.674 3.104C110.621 3.104 109.76 3.35909 109.093 3.86928C108.43 4.37469 108.098 5.08751 108.098 6.00775C108.098 7.06149 108.539 8.00795 109.422 8.84713C110.046 9.45267 110.849 10.094 111.832 10.771C112.819 11.4433 113.498 11.9273 113.87 12.2229C114.242 12.5138 114.693 12.9119 115.222 13.4173C116.175 14.3757 116.652 15.4795 116.652 16.7287C116.652 18.3499 116.111 19.5752 115.029 20.4049C113.946 21.2345 112.432 21.6494 110.487 21.6494C108.547 21.6494 106.921 21.1416 105.609 20.126L106.318 19.1032C107.643 19.9996 109.047 20.4478 110.53 20.4478C112.018 20.4478 113.176 20.1355 114.006 19.5109C114.836 18.8863 115.25 18.0089 115.25 16.8789C115.25 15.9015 114.831 15.0027 113.992 14.1826C113.405 13.5961 112.619 12.962 111.631 12.2801C110.645 11.5935 109.956 11.1 109.565 10.7996C109.174 10.4945 108.716 10.0892 108.192 9.58379C107.195 8.58727 106.696 7.43578 106.696 6.12933C106.696 4.81812 107.159 3.79299 108.084 3.05394C109.014 2.31012 110.299 1.93821 111.939 1.93821C113.579 1.93821 115.053 2.26006 116.359 2.90375L115.865 3.98371C114.654 3.39724 113.257 3.104 111.674 3.104Z" fill="var(--fill-0, black)"/>
</svg>
