<svg preserveAspectRatio="none" width="100%" height="100%" overflow="visible" style="display: block;" viewBox="0 0 17 30" fill="none" xmlns="http://www.w3.org/2000/svg">
<path id="Vector" d="M2.00002 6.01179C1.99845 5.47849 2.10353 4.95027 2.30909 4.45819C2.51465 3.9661 2.81654 3.52009 3.19699 3.14638C3.57745 2.77267 4.02879 2.47882 4.52447 2.28209C5.02016 2.08537 5.55018 1.98976 6.08336 2.00087C6.61654 2.01198 7.14211 2.1296 7.62917 2.34681C8.11622 2.56401 8.55493 2.87642 8.91948 3.26566C9.28403 3.65489 9.56707 4.1131 9.75195 4.61332C9.93683 5.11355 10.0198 5.64569 9.99602 6.17845C10.7797 6.37997 11.5073 6.75719 12.1237 7.28154C12.7401 7.80588 13.229 8.46362 13.5536 9.20492C13.8781 9.94622 14.0297 10.7516 13.9968 11.5602C13.964 12.3688 13.7476 13.1592 13.364 13.8718C14.0384 14.4197 14.5688 15.1241 14.9089 15.9237C15.249 16.7233 15.3886 17.5939 15.3155 18.4598C15.2425 19.3256 14.9589 20.1605 14.4896 20.8918C14.0203 21.6231 13.3794 22.2287 12.6227 22.6558C12.7161 23.3788 12.6604 24.1132 12.4588 24.8138C12.2573 25.5144 11.9143 26.1662 11.451 26.7291C10.9877 27.2919 10.4139 27.7538 9.76506 28.0861C9.11624 28.4185 8.40618 28.6144 7.67872 28.6616C6.95125 28.7088 6.22183 28.6063 5.5355 28.3606C4.84917 28.1149 4.22051 27.731 3.68834 27.2328C3.15617 26.7346 2.73178 26.1325 2.4414 25.4639C2.15102 24.7952 2.0008 24.0741 2.00002 23.3451V6.01179Z" stroke="var(--stroke-0, #FF6A00)" stroke-width="2.66667" stroke-linecap="round" stroke-linejoin="round"/>
</svg>
