<svg preserveAspectRatio="none" width="100%" height="100%" overflow="visible" style="display: block;" viewBox="0 0 55 44" fill="none" xmlns="http://www.w3.org/2000/svg">
<path id="Vector" d="M24.2943 0.0213989C21.1182 0.356808 21.4874 4.46415 23.3745 5.81664C22.8198 5.7228 20.156 4.82072 19.3427 4.81556C15.7053 2.37098 20.5504 1.48609 18.4051 2.51178C17.8608 3.57181 19.365 4.645 20.3718 3.81164C22.3184 -1.76268 12.749 0.940052 18.1396 6.187C11.575 7.35743 12.6133 1.89019 14.3488 3.9759C12.6671 3.65995 13.3357 5.55566 14.8827 5.28435C18.7806 0.53596 8.02292 1.68356 12.9407 6.56932C15.3378 8.26471 18.4956 6.01924 21.1926 7.05527C22.1793 7.32024 24.4288 9.11238 22.8484 9.63722C20.7164 6.10284 16.2965 7.49829 13.1062 8.58575C9.68964 10.1386 7.65204 6.39991 9.90832 6.52864C10.2351 6.68324 9.88601 7.40097 10.3691 7.10733C10.5648 4.62841 7.20615 6.83258 9.06638 8.58804C10.3725 10.2657 15.6246 7.95271 12.3695 9.67327C8.49627 11.5541 5.02543 4.56718 10.1493 5.16702C11.6861 5.57394 11.4749 8.39402 9.93007 7.60071C9.39664 6.79482 9.23116 8.71855 10.8584 8.09695C12.7765 7.15488 11.1761 4.52309 9.52709 4.38802C5.19598 4.81556 6.39968 10.7608 11.2826 10.6131C10.1475 11.9233 6.32187 13.8447 5.43237 11.3572C5.98355 10.4963 5.59433 11.3355 6.08545 11.7029C9.58894 12.7618 7.99603 7.7009 5.18396 8.94004C1.20026 11.6989 6.2365 16.6808 9.76065 14.4932C9.93178 14.3404 10.7114 13.9277 10.7794 14.1423C10.3959 15.1457 10.3175 14.4188 9.61183 14.9059C7.70354 15.3117 0.824207 19.2891 2.55105 14.5705C3.38442 14.2443 1.75374 15.1835 2.65121 15.9196C7.19013 16.8336 2.51671 10.8163 0.582672 14.4949C-0.30851 17.0111 2.14295 19.2656 4.60299 18.8014C4.0541 20.2289 4.49825 22.3387 2.66209 22.9002C-0.373189 23.828 0.828218 17.4753 2.49668 21.0234C1.87222 19.6955 0.400084 21.7755 2.06224 22.0571C4.42386 21.3845 1.9163 17.5542 0.354294 20.2255C-0.415544 21.542 0.112181 22.9551 1.52079 23.6924C-0.860274 24.2584 0.258708 27.102 2.14124 27.3893C-0.824789 29.8631 4.12106 32.5607 6.05221 30.1664C6.57196 29.5082 6.3693 29.744 6.47464 30.3061C6.60343 30.9924 6.96973 31.5864 6.81519 32.3077C5.48045 30.4097 2.86528 32.3168 3.7101 34.1181C4.65509 36.2112 7.86552 35.7207 8.30792 33.556C8.83168 34.2669 9.51565 34.501 10.2134 34.857C15.5519 40.413 3.75189 39.8549 8.63365 35.4552C10.8063 35.0373 11.27 37.8356 9.16594 37.8654C8.46995 37.7023 8.41268 36.5678 9.18367 36.7321C9.99758 38.2454 9.882 35.1518 8.47625 36.5535C7.48371 40.5481 13.7712 37.0967 9.57057 34.9898C4.45704 34.461 7.99431 42.1478 11.266 38.9306C11.0834 44.1805 18.7279 45.3839 18.2569 38.8928C24.0911 41.014 25.803 35.4952 27.3787 37.1997C29.6614 38.5688 35.2311 39.863 34.8471 35.94C34.2329 34.8719 34.6776 34.2514 35.3994 33.4152C35.0931 32.0696 34.945 32.1737 35.3994 30.7703C34.4509 29.4464 34.1969 31.017 33.6147 30.8344C32.8105 30.582 33.5112 30.3216 32.1048 30.3118C30.1731 32.5005 30.1107 30.5843 29.5309 31.6952C29.5618 32.1079 29.9658 32.3088 30.0729 31.7782C31.0637 32.5258 32.2279 34.8049 33.822 34.2182C35.6032 38.3576 32.2268 38.2929 29.1502 37.2272C24.5587 35.5318 29.1268 33.8834 26.5156 30.1687C26.1825 29.6015 25.1059 28.3109 24.2937 28.0744C21.9258 27.0259 25.6702 26.6858 24.9685 22.8675C28.3129 23.0605 25.9358 23.0621 28.6431 24.3798C30.0649 25.3637 34.5397 24.0123 33.0836 21.9089C35.4738 22.4514 35.3748 23.765 35.5694 25.8662C35.3599 26.9068 36.0542 28.4745 35.1275 29.1264C34.6879 28.8923 34.3211 28.4808 33.7773 28.779C32.2966 30.0628 32.7098 27.0848 34.0423 27.5902C34.4624 27.5718 34.3857 27.284 34.0389 27.1924C31.6784 26.5708 31.6206 29.5059 33.2656 29.8299C33.5644 29.8888 33.7555 29.7389 34.0028 29.6427C34.3863 30.1475 34.7944 29.5231 35.1104 30.0668C38.9881 31.0936 36.3844 27.6692 38.3889 27.5284C39.7196 27.6577 41.7052 28.7035 40.4929 30.3794C40.438 30.4961 40.007 30.6867 39.995 30.4657C41.2078 25.7403 34.6977 31.5304 40.1466 32.196C42.5317 31.6088 42.5478 28.7595 41.1305 27.2559C43.0629 27.8878 45.3502 30.456 47.6359 28.7464C49.1374 27.9175 50.0092 26.0024 49.4459 24.6093C51.9817 25.418 53.9419 21.8705 51.6211 20.3657C58.3701 18.719 51.9905 12.2226 47.2631 16.374C48.809 7.79021 56.2691 11.7069 52.3393 13.3942C51.768 12.9639 52.7172 12.6227 52.178 12.4201C50.3045 13.1665 52.7553 14.5127 53.6466 13.4663C54.8108 8.28016 47.4061 10.8455 47.2673 14.5453C46.773 16.7335 45.2554 18.7849 43.1877 20.028C47.2499 16.3672 45.748 13.1235 49.0079 10.5296C53.9018 6.65458 56.5543 16.0833 51.4704 13.8304C50.6626 12.9701 51.5627 11.2473 52.578 12.2615C52.8065 12.5466 52.4168 12.8436 52.6182 13.0543C53.0354 13.1676 53.0752 12.8058 53.1742 12.5689C52.145 9.74542 49.3274 13.1207 51.4739 14.5064C55.9572 16.0506 55.5738 9.38993 51.6884 9.24283C46.4433 7.24528 44.6752 23.5017 42.9299 16.2407C41.8242 15.2127 41.0641 11.9507 43.4001 12.6341C41.4356 13.1762 42.9993 15.8732 44.8543 14.2832C46.3481 13.0834 44.4818 10.2119 42.3756 10.8141C38.9704 11.6909 41.0607 16.4742 38.635 8.6012C38.7226 3.50885 43.321 7.96587 40.6555 7.60071C41.1254 6.91217 40.4826 6.76735 39.7695 6.86468C38.5417 7.93612 39.9309 9.87874 41.5335 9.36991C45.8411 5.88593 38.0735 1.68814 36.6643 8.16281C35.5287 6.85318 33.0184 5.26489 34.4573 3.41956C36.1022 2.5879 33.9724 3.99364 34.7389 5.05598C35.6048 5.59226 35.4532 5.69073 36.6203 5.3925C40.102 -0.0346988 29.417 0.343067 33.3532 7.35119C32.5988 7.14401 29.8629 5.20878 29.5097 4.72285C28.4142 3.66739 28.7759 0.861631 30.7122 2.09166C30.7689 2.56501 30.7614 2.39673 30.4238 2.23475C29.0461 1.67554 29.0879 3.37433 29.765 4.09267C31.7139 5.44688 33.2776 2.35495 31.6349 1.07856C28.2648 -1.93325 25.8523 3.39151 28.381 5.96718C21.4988 6.32203 23.0545 -1.09587 25.1608 2.42191C24.2771 0.329329 23.1415 4.28271 25.7166 3.63362C28.1858 2.63541 26.0509 -0.277384 24.2942 0.0213938L24.2943 0.0213989ZM31.4409 15.2167C40.2108 14.191 35.9426 38.0348 36.3375 26.0522C36.7571 13.2569 26.8865 25.1811 23.5863 20.1958C29.5893 21.5288 25.5426 14.4835 31.4409 15.2167ZM17.4854 18.8844C18.5436 19.1775 19.2746 19.5473 17.6301 19.6085C13.3849 20.9198 14.8874 26.8524 18.859 27.2513C21.8605 27.9067 25.9301 28.4161 26.5002 31.9545C28.0147 37.9782 18.0016 39.7525 17.6267 33.3516C17.5832 32.0753 18.5322 30.3914 20.0146 30.357C14.4524 34.8753 24.8644 40.4497 25.8288 33.4358C25.8711 32.5904 25.8414 30.4887 24.9622 30.4154C25.7189 31.658 25.858 33.3185 25.1328 34.6636C19.9758 41.4913 15.4248 28.3795 22.3665 31.2041C24.4574 33.2881 20.065 35.4448 20.9224 32.6757C21.4221 32.69 22.0724 32.8033 22.0237 32.1423C21.9183 31.8767 20.263 31.3255 19.9013 32.8721C19.8246 37.3755 26.6599 34.5262 23.8861 30.7628C21.0054 26.7654 17.0114 29.1877 14.9744 25.062C13.4381 22.6237 14.4558 19.1008 17.4848 18.8844H17.4854ZM10.3954 24.7015C15.4918 25.3162 15.4511 34.4993 9.83732 32.342C5.76435 28.9118 13.1245 26.553 10.8711 30.7354C12.7421 31.0851 11.4382 27.0923 9.31075 28.3274C6.30121 31.0285 10.4933 34.0431 13.2927 34.2858C18.4361 36.1374 19.0674 45.1643 13.267 42.2841C15.1415 41.2241 14.1164 43.7091 16.5009 41.7638C18.0422 39.3164 15.869 35.901 13.4982 34.9566C15.2903 36.415 18.5522 39.9631 15.3401 41.8302C14.6275 41.9555 15.5335 40.6969 15.5931 40.5722C17.2529 35.4219 9.44813 35.2313 7.76018 31.7302C5.73975 28.5318 10.748 25.2801 12.5418 28.5461C14.1375 33.2178 7.94562 31.4463 10.6346 29.8659C10.4749 28.9902 9.43955 29.8905 9.35944 30.424C9.86707 32.5881 12.7713 32.362 13.5274 30.3748C14.8696 26.6481 8.37721 23.3031 6.81353 27.8048C7.03731 25.8868 8.3732 24.5664 10.3948 24.7015H10.3954ZM17.5735 8.975C21.6007 8.95154 21.5148 12.6026 20.7616 11.399C17.4081 7.97851 12.631 11.9433 9.6124 13.7806C1.43322 16.4375 5.28984 5.13152 7.73958 10.8873C7.29318 11.9416 5.55315 11.4642 6.41227 10.5525C6.78086 10.9073 6.85124 10.5971 6.79974 10.3012C6.00472 9.5994 5.07008 10.8449 5.06318 11.3063C7.45802 16.5869 13.6728 8.1754 17.5735 8.975ZM23.4975 13.2426C28.547 13.0039 28.1045 21.5437 23.4975 19.2788C22.7689 19.0876 22.7455 17.6361 23.1701 17.3625C22.7632 20.1706 26.487 19.324 26.3445 16.8422C25.6886 12.9702 20.3042 14.3799 20.7158 17.8479C20.5544 20.8557 25.5283 23.5951 21.5881 26.2239C20.8297 26.604 19.9957 26.6298 21.3489 26.0969C25.546 22.5957 13.8714 16.0781 23.4981 13.2426H23.4975ZM23.7168 14.7193C25.5769 14.9523 26.9518 18.1272 24.6331 18.691C22.8519 18.794 23.6229 16.2956 24.6068 17.4009C22.5228 18.1478 26.9707 18.0986 24.1512 16.4593C18.0606 17.5422 27.3158 23.0501 23.6721 26.2279C22.9229 27.7591 19.5825 27.0717 21.6488 26.6515C27.2403 23.3998 16.2124 16.7335 23.7161 14.7193H23.7168ZM16.795 17.0924C17.2266 17.1959 17.6702 17.0849 18.0377 17.3866C18.5277 17.7878 17.5042 17.5336 17.4063 17.801C20.2018 19.1306 15.7842 17.647 14.6058 20.1476C11.3902 27.3641 19.6827 27.5163 23.3104 30.4589C24.399 31.5836 24.0894 34.6361 23.7173 32.1405C22.4993 28.506 17.1276 30.0715 15.0791 27.0109C12.5355 24.2373 12.1978 17.8416 16.795 17.0918V17.0924ZM9.05951 22.0869C9.62727 22.0869 11.3541 22.7141 11.6512 23.5241C11.5928 23.5207 10.2357 23.0038 10.155 22.958C4.38094 21.4241 4.27045 36.1248 5.99728 26.7826C6.09632 24.061 9.92034 21.9564 11.9963 24.4427C4.79762 21.6261 8.18719 32.729 2.40224 30.1602C1.20312 29.4693 1.68392 27.5324 3.05188 27.8088C3.93734 28.2318 3.85034 29.546 2.88761 29.1866C2.7428 29.1098 2.81148 28.8637 2.72219 28.7378C2.84068 28.2124 3.39988 29.0658 3.56244 28.7475C3.08965 27.5496 2.27116 28.5941 2.37934 29.0251C3.56987 31.2345 5.48447 27.9903 3.30773 27.2794C6.76484 26.7992 5.33851 22.1504 9.05888 22.0863L9.05951 22.0869ZM51.5741 15.5544C57.1802 16.6138 50.826 23.0347 50.5403 17.92C51.7803 16.5583 52.6702 19.3274 51.3786 18.0018C50.5382 17.9131 51.1315 19.3704 51.8589 19.3996C52.9656 19.2674 53.7566 18.1209 53.2018 17.1925C48.4116 11.9736 46.0798 24.3672 38.777 23.1125C38.0758 22.8063 37.0724 22.9557 37.3758 21.6793C43.6845 25.2612 45.9156 15.1337 51.5746 15.5544H51.5741ZM30.1405 0.635551C32.3956 0.913149 32.2256 5.12407 29.836 3.54205C29.2756 2.99944 30.1261 1.97948 30.2177 3.14825C32.2445 3.55807 30.5903 -0.0656015 28.7696 1.8049C26.6027 6.94306 40.1197 9.88566 35.2019 15.0513C35.5024 14.7016 35.9918 13.1956 35.5121 13.0583C35.163 13.6661 35.2614 14.9088 34.4487 15.1297C36.5682 11.5787 33.2433 8.67621 30.1038 6.88585C28.0628 5.4217 26.5156 0.754029 30.1404 0.636123L30.1405 0.635551ZM35.3988 2.09224C38.5766 2.96739 35.5837 7.18978 35.0451 3.9822C35.2116 3.61074 35.7302 3.22954 35.7794 3.85342C35.2746 3.93985 35.3084 4.2701 35.59 4.54311C37.3226 4.637 35.7233 1.9108 34.3628 3.01146C30.8645 5.98606 42.3582 12.6015 36.0536 16.101C35.3553 16.0375 36.4365 15.2825 36.559 14.9591C39.5039 10.4706 28.5424 4.53456 35.3988 2.09281V2.09224ZM49.236 20.1757C55.079 20.4779 50.1256 27.4997 49.1713 22.2357C49.9981 20.2192 52.2157 23.1755 50.1835 22.7513C50.1116 22.4022 51.0676 22.8738 50.393 22.0874C49.3773 21.8396 49.4095 23.2505 50.418 23.4394C52.7083 23.3513 50.7434 20.5586 49.1716 20.6261C45.2195 20.2478 44.4476 25.8863 39.7695 24.2579C38.2218 23.7622 43.2833 23.8143 44.6409 22.0788C45.9076 20.9186 47.3092 19.9336 49.2364 20.1752L49.236 20.1757ZM46.8623 22.7606C51.1658 23.4365 48.6304 29.9913 44.8555 28.5667C42.9947 27.8449 42.6866 26.9251 40.533 26.2251C38.1731 26.0786 41.9462 26.0053 42.613 26.4706C50.7366 32.1463 48.2216 19.225 46.0832 24.5543C45.9381 24.9166 46.4349 24.4777 46.7976 25.0609C46.0616 27.2703 43.6828 23.5865 46.8623 22.7611V22.7606ZM9.27064 18.2783C11.6214 19.6531 8.19463 18.7534 7.90843 19.5031C8.51001 19.5392 10.2729 19.0173 10.2672 20.1752C5.92404 19.118 5.45582 24.6276 3.6958 26.5457C2.47035 27.0481 0.213494 26.4609 0.721188 24.8039C0.955862 23.9889 2.72964 24.1622 2.15555 24.892C0.447023 23.5373 0.594694 26.6275 2.37076 26.4672C5.14561 26.5227 3.96366 18.8329 9.27064 18.2777V18.2783ZM18.6278 20.6261C20.9694 21.0594 23.1816 24.4788 20.377 25.9378C18.4767 26.0511 17.8293 24.1869 19.1538 24.2693C18.3903 25.4358 20.5355 25.9915 20.9556 24.8777C22.3648 21.3496 16.2627 21.2781 16.7957 24.8777C14.9949 23.4972 16.0373 20.257 18.6278 20.625V20.6261ZM12.231 35.778C19.1607 38.0531 11.8344 45.4935 11.7828 39.0851C12.409 37.906 14.3424 38.3198 14.1044 39.7731C13.4049 40.7622 12.1623 39.7038 13.5188 39.4199C13.275 37.9965 11.4452 40.4199 13.2275 40.7502C16.4407 40.4479 13.8565 36.36 11.5579 38.5196C12.0501 37.7852 11.7691 36.1511 12.2315 35.7785L12.231 35.778ZM17.1843 15.0713C17.3669 15.1646 18.8573 15.1137 18.4143 15.7759C18.0222 16.2023 16.6863 15.2035 16.2479 16.0443C18.3965 16.0541 18.6816 17.0568 16.8145 16.6648C12.4823 17.0391 12.3552 22.4056 13.6539 25.382C10.8046 22.1458 12.259 15.6179 17.1837 15.0713H17.1843ZM17.0332 11.8655C17.6983 11.965 20.2081 12.1465 19.6689 13.1882C19.357 13.2632 19.3547 12.7824 19.096 12.7675C18.9174 12.9684 19.3553 13.2918 19.2265 13.491C15.5662 11.4196 12.2544 14.7817 11.7525 18.205C11.2923 26.0631 8.99309 12.202 17.0332 11.866V11.8655ZM39.7695 5.20421C44.4188 5.22884 41.4431 11.7081 39.7751 7.80337C40.2639 6.41078 40.2147 7.63682 40.5147 8.28811C44.5935 7.71921 38.8135 2.992 38.0535 7.53091C38.1645 10.9056 40.885 16.3672 37.081 16.7363C41.4585 13.8321 34.1093 6.66379 39.7695 5.2048V5.20421ZM17.1843 29.8202C18.6289 30.3742 18.0635 29.9432 17.4327 30.879C13.8565 36.1053 20.8223 38.2941 22.6813 38.1086C18.0566 40.219 12.6969 33.1084 17.1843 29.8207V29.8202ZM43.0421 11.3584C45.3003 11.7481 44.9313 14.3776 43.183 14.0404C43.0286 13.8121 42.7759 13.1361 43.3506 13.2128C43.8246 14.9906 44.9837 12.3594 43.61 11.9296C40.964 11.1231 40.5719 14.4308 41.5558 16.1187C43.0823 19.9605 38.9012 21.7188 36.7708 18.802C36.207 16.9796 37.2619 18.4712 37.8995 19.2428C44.0857 21.4532 37.7724 11.7693 43.0417 11.3584H43.0421ZM29.5309 8.12276C33.1105 7.9768 36.5086 12.6107 33.4756 14.7222C33.1431 14.5682 33.6909 14.1298 33.7773 13.9082C33.8483 13.3342 33.6067 10.8186 32.9016 10.7814C33.4253 11.6216 33.4041 13.1962 32.9439 14.0989C32.8655 14.0216 33.4281 12.3147 32.8449 12.2106C32.3807 15.7313 33.3566 9.96176 29.5303 8.12276H29.5309ZM50.9376 16.5228C54.3008 16.0346 52.4629 20.7074 51.3613 18.4157C53.0583 19.4785 52.3804 16.6848 50.9368 17.0929C49.5788 17.5949 50.5906 19.834 49.9326 19.5799C48.7718 19.2965 46.8407 20 46.6515 19.9508C47.3938 19.0327 49.2851 16.204 50.9368 16.5228H50.9376ZM2.689 13.7818C3.37813 13.8207 3.61967 14.076 3.77021 14.5528C0.523147 12.3119 0.818491 20.4865 7.38587 15.9773C7.78827 15.7547 10.9723 14.4251 10.2266 15.7181C7.93767 15.8285 6.46377 17.8874 3.99343 18.0739C1.53223 18.4952 -0.501968 13.9752 2.68957 13.7818H2.689ZM23.8369 11.7773C25.4476 11.8769 28.3558 13.1453 27.7107 14.95C27.2477 14.5481 27.341 13.5923 26.641 13.3656C25.7727 13.175 27.4892 14.3261 27.1681 14.6638C25.8259 12.4035 22.4088 12.3766 20.5498 14.1521C19.3782 15.5824 19.2207 17.5039 19.5699 19.2244C17.973 16.3729 20.5641 12.0704 23.8369 11.7767V11.7773ZM25.2719 9.39623C29.6929 9.08314 30.1954 16.287 29.0083 13.5546C27.1979 9.66755 20.9035 10.9085 25.2719 9.39623ZM24.3939 0.462124C26.7446 0.366538 27.2752 3.96446 24.7087 3.14825C24.229 2.23933 24.763 1.98406 25.1677 2.93476C26.4481 2.54097 25.5575 1.18331 24.8609 0.978404C21.9722 0.454109 22.6847 4.2764 24.2948 5.28376C25.4161 6.52927 27.772 5.99985 28.8721 6.96366C25.0692 8.05289 19.2488 2.52094 24.3944 0.462124H24.3939ZM31.6355 21.8018C35.2277 22.5848 29.8846 24.9372 28.5991 23.5939C25.9587 22.7028 30.7185 21.9083 31.6355 21.8018ZM19.7273 1.54791C20.7662 2.32576 20.0805 4.6799 18.7228 3.26617C18.7801 2.09738 19.3953 2.76935 19.3547 2.90385C19.2786 3.1557 18.6787 3.35832 19.4778 3.46134C20.5412 2.26452 18.8985 1.06597 17.7698 2.09281C16.2748 6.32776 23.1364 5.07545 24.5118 7.77528C25.1849 8.46159 24.4208 9.08606 24.0299 8.12327C23.0934 6.40677 20.6294 6.26711 18.9329 6.13545C16.9834 4.95067 16.4316 0.387716 19.7268 1.54849L19.7273 1.54791ZM46.8623 23.8172C48.8534 24.1319 47.346 26.8089 46.4949 27.2891C45.7975 27.6823 42.6054 26.7889 44.0595 26.1066C44.2334 25.9355 44.6799 25.188 44.8623 25.137C45.3697 26.6229 47.9613 26.5874 47.1526 24.7719C46.7514 23.8715 46.528 23.8435 46.8623 23.8177V23.8172ZM41.4963 14.9076C45.4027 19.0442 39.9411 24.3969 37.1005 19.7962C41.2725 22.7331 43.0306 18.078 41.4963 14.9076ZM40.0007 14.5974C40.0791 15.7799 40.7304 16.9413 40.5748 18.1529C40.0018 19.6789 37.6711 19.1248 37.5321 17.6567C38.6711 17.5514 39.6132 15.4193 40.0013 14.5974H40.0007ZM15.7968 29.2615C18.1407 29.4905 14.1536 31.5075 15.126 34.1416C15.1576 34.2932 15.513 34.9715 15.0785 34.6241C12.4439 33.7609 14.4925 30.4492 15.7968 29.2615ZM9.76122 17.5107C11.8956 18.4208 6.26231 16.7724 4.79932 21.9105C4.31911 20.0887 8.56322 14.7411 10.1762 17.0214C9.65359 16.9057 8.69773 17.5273 9.76122 17.5113V17.5107ZM17.6301 10.9565C18.5053 11.1689 20.0616 11.3801 20.2047 12.4533C17.2827 10.6349 13.3082 12.0034 11.7519 14.9076C10.2306 21.0789 9.94094 11.0184 17.6301 10.956V10.9565ZM16.518 13.2426C17.2844 13.2168 19.5499 13.3508 18.7234 14.5528C16.3944 13.1058 13.4273 15.3644 12.3443 17.2474C12.5595 15.5721 14.608 13.3302 16.518 13.2431V13.2426ZM19.3427 22.5625C21.3443 22.5327 21.1519 25.9475 19.3078 24.8486C21.5509 25.0329 19.1607 22.2677 18.2993 24.1622C18.0205 24.8903 18.0497 25.7025 18.9117 26.1061C19.0874 26.1907 20.0593 26.2909 19.4017 26.4901C17.0137 26.5954 16.7327 22.4921 19.3427 22.5625ZM18.562 8.01113C19.7273 8.10096 22.3814 9.3207 21.7123 10.6526C19.7027 7.7009 15.3521 8.48219 12.6809 10.1769C13.9069 8.7621 16.5856 8.08213 18.562 8.01113ZM5.33394 31.7868C6.27432 31.8589 6.90165 33.6659 5.71913 32.824C5.58633 32.9596 5.45582 33.0958 5.33394 33.2384C6.06142 34.1605 5.83816 33.4748 6.25487 33.5978C6.32931 33.7799 5.82271 33.9189 5.65904 33.8857C4.85827 33.7392 4.60414 32.4382 5.55142 32.504C5.96352 33.1393 6.36535 32.5492 5.81699 32.1778C2.68384 31.9866 6.24342 36.8597 7.3996 32.4782C8.30792 33.6768 6.69961 35.3378 5.33449 34.9119C4.18918 34.4953 3.3249 32.1371 5.33449 31.7868H5.33394ZM26.9861 8.58575C29.6866 9.27207 31.3687 12.2432 29.9384 14.5453C31.5044 10.0236 23.6653 8.81302 26.9861 8.58575ZM28.4325 8.23948C33.7773 9.3167 31.8811 16.7432 31.5462 12.5185C31.6349 13.179 31.3396 13.5602 31.4661 12.7257C31.1284 8.87081 26.6988 8.29504 28.4331 8.23948H28.4325ZM24.0304 10.6526C25.7893 10.8856 26.9958 11.5901 28.045 12.9627C28.227 13.301 28.5041 14.6907 28.0644 13.764C26.4241 10.3813 19.0685 12.3016 24.031 10.6526H24.0304ZM44.3646 24.1033C43.6502 27.0562 39.4507 24.4627 37.7152 26.3871C37.1875 25.5377 39.1467 24.7203 39.9039 25.0609C42.858 25.6699 43.4733 24.1079 44.3646 24.1033ZM39.0076 26.9125C45.7599 29.1602 37.4485 34.7603 38.8697 29.3634C39.0082 29.3468 39.3236 29.1711 39.4158 29.3033C37.0673 31.9505 43.4264 31.4543 40.5445 27.8912C40.2027 27.0499 36.6563 27.1615 39.0076 26.9125ZM48.5496 21.076C50.415 21.3742 49.2004 20.7715 48.5496 22.7606C48.2284 22.5087 47.7489 22.2323 47.2728 22.3215C44.6896 23.0095 47.4844 21.0148 48.5496 21.076ZM34.3153 32.3695C36.2831 33.4673 32.5364 34.145 31.9268 32.8263C32.2771 31.7055 33.8065 33.2945 34.3153 32.3695ZM4.28992 23.3186C3.92818 23.9425 3.35581 25.7758 2.515 25.8519C2.15841 25.884 1.11726 25.584 1.49904 25.1874C2.432 25.5268 3.05531 25.1536 2.863 24.3506C2.66954 23.5424 2.0571 23.6718 3.03871 23.7026C3.35524 23.7123 4.081 23.3129 4.28992 23.3186ZM32.4626 30.5968C33.3062 31.1875 33.8494 31.4107 34.6112 30.8619C34.8705 31.4903 33.7367 32.029 33.2507 31.48C32.5421 31.0244 32.2359 31.9035 31.2491 32.0971C30.6115 32.0535 32.1775 30.6593 32.4626 30.5968ZM14.1044 2.60622C15.4563 2.73958 15.5851 5.39826 13.9538 4.7091C13.457 4.08351 14.0403 4.03772 14.3344 4.54772C15.3521 4.16422 14.7059 3.16256 13.9538 3.03493C12.2699 3.76928 12.9814 2.80598 14.1044 2.6068V2.60622ZM9.35881 20.5684C12.6322 21.617 8.76645 21.032 7.73901 21.4922C7.13801 20.9633 8.83225 20.7 9.35881 20.5684ZM37.7152 24.0169C39.1673 24.6494 38.5675 24.5423 37.5927 25.2583C37.5326 25.0077 37.2894 24.0999 37.7152 24.0169ZM14.8822 28.4613C15.9354 28.8649 14.932 29.4183 14.6424 30.0102C14.4878 29.882 14.6962 29.633 14.7357 29.4865C14.8192 29.2604 14.7036 28.5318 14.8816 28.4613H14.8822ZM3.25221 14.6266C4.65682 14.9288 4.28936 15.7347 3.18638 15.5544C2.69243 15.4737 2.84583 14.709 3.25221 14.6266Z" fill="var(--fill-0, black)"/>
</svg>
