<svg preserveAspectRatio="none" width="100%" height="100%" overflow="visible" style="display: block;" viewBox="0 0 23 26" fill="none" xmlns="http://www.w3.org/2000/svg">
<path id="Vector" d="M10.8 23.7007C11.1344 23.8938 11.5138 23.9955 11.9 23.9955C12.2862 23.9955 12.6656 23.8938 13 23.7007L20.7 19.3007C21.0341 19.1078 21.3116 18.8305 21.5047 18.4965C21.6978 18.1625 21.7996 17.7835 21.8 17.3977V8.59774C21.7996 8.21195 21.6978 7.83304 21.5047 7.49902C21.3116 7.16501 21.0341 6.88764 20.7 6.69474L13 2.29474C12.6656 2.10165 12.2862 2 11.9 2C11.5138 2 11.1344 2.10165 10.8 2.29474L3.1 6.69474C2.76589 6.88764 2.48838 7.16501 2.29531 7.49902C2.10224 7.83304 2.0004 8.21195 2 8.59774V17.3977C2.0004 17.7835 2.10224 18.1625 2.29531 18.4965C2.48838 18.8305 2.76589 19.1078 3.1 19.3007L10.8 23.7007Z" stroke="var(--stroke-0, white)" stroke-width="2.2" stroke-linecap="round" stroke-linejoin="round"/>
</svg>
