<svg preserveAspectRatio="none" width="100%" height="100%" overflow="visible" style="display: block;" viewBox="0 0 19 33" fill="none" xmlns="http://www.w3.org/2000/svg">
<path id="Vector" d="M16.6679 6.41296C16.6696 5.82634 16.554 5.2453 16.3279 4.704C16.1018 4.16271 15.7697 3.6721 15.3512 3.26102C14.9327 2.84994 14.4362 2.5267 13.8909 2.3103C13.3457 2.09391 12.7627 1.98873 12.1762 2.00096C11.5897 2.01318 11.0115 2.14256 10.4758 2.38149C9.94002 2.62042 9.45745 2.96406 9.05644 3.39222C8.65543 3.82038 8.34409 4.32441 8.14072 4.87465C7.93736 5.4249 7.84608 6.01026 7.87225 6.5963C7.01015 6.81797 6.20979 7.2329 5.53179 7.80969C4.85379 8.38647 4.31593 9.10998 3.95895 9.92541C3.60197 10.7408 3.43523 11.6268 3.47135 12.5162C3.50748 13.4056 3.74552 14.2752 4.16745 15.059C3.42558 15.6617 2.84221 16.4365 2.46808 17.3161C2.09395 18.1956 1.9404 19.1533 2.02078 20.1057C2.10117 21.0582 2.41305 21.9766 2.9293 22.781C3.44555 23.5854 4.15053 24.2515 4.98292 24.7214C4.88013 25.5166 4.94147 26.3246 5.16315 27.0952C5.38483 27.8658 5.76215 28.5829 6.2718 29.202C6.78145 29.8211 7.41261 30.3291 8.12631 30.6947C8.84 31.0604 9.62107 31.2758 10.4213 31.3277C11.2215 31.3797 12.0239 31.267 12.7788 30.9967C13.5338 30.7263 14.2253 30.3041 14.8107 29.7561C15.3961 29.208 15.8629 28.5458 16.1823 27.8103C16.5018 27.0747 16.667 26.2815 16.6679 25.4796V6.41296Z" stroke="var(--stroke-0, white)" stroke-width="2.93333" stroke-linecap="round" stroke-linejoin="round"/>
</svg>
