<svg preserveAspectRatio="none" width="100%" height="100%" overflow="visible" style="display: block;" viewBox="0 0 33 33" fill="none" xmlns="http://www.w3.org/2000/svg">
<path id="Vector" d="M16.6667 2C8.6 2 2 8.6 2 16.6667C2 24.7333 8.6 31.3333 16.6667 31.3333C18.0248 31.3333 19.0837 30.2392 19.0837 28.8576C19.0837 28.2167 18.8197 27.6329 18.4428 27.2076C18.0175 26.7837 17.8004 26.2513 17.8004 25.5576C17.7948 25.2348 17.8543 24.9142 17.9753 24.6149C18.0963 24.3155 18.2763 24.0436 18.5045 23.8153C18.7328 23.5871 19.0047 23.4071 19.3041 23.2861C19.6034 23.1651 19.924 23.1056 20.2468 23.1112H23.1743C27.6491 23.1112 31.3216 19.4401 31.3216 14.9653C31.282 7.88427 24.6761 2 16.6667 2Z" stroke="var(--stroke-0, black)" stroke-width="2.93333" stroke-linecap="round" stroke-linejoin="round"/>
</svg>
